<svg width="22" height="22" viewBox="0 0 22 22" fill="none" xmlns="http://www.w3.org/2000/svg">
<path fill-rule="evenodd" clip-rule="evenodd" d="M7.2015 1.87519L9.9733 5.33994L9.83413 5.41726H14.4391L11.6054 1.87519H7.2015ZM20.002 5.41726H16.6058L16.745 5.33994L13.9732 1.87519H16.6683C18.5095 1.87519 20.002 3.36772 20.002 5.20886V5.41726ZM7.66741 5.41726L4.8491 1.89437C3.17716 2.07378 1.87519 3.48927 1.87519 5.20886V5.41726H7.66741ZM1.87519 16.6683V7.29245H20.002V16.6683C20.002 18.5095 18.5095 20.002 16.6683 20.002H5.20886C3.36772 20.002 1.87519 18.5095 1.87519 16.6683ZM5.20886 0C2.33208 0 0 2.33208 0 5.20886V16.6683C0 19.5451 2.33208 21.8772 5.20886 21.8772H16.6683C19.5451 21.8772 21.8772 19.5451 21.8772 16.6683V5.20886C21.8772 2.33208 19.5451 0 16.6683 0H5.20886ZM14.3243 13.4733C14.6716 13.2728 14.6716 12.7715 14.3243 12.5711L8.85502 9.41335C8.50776 9.21286 8.07369 9.46347 8.07369 9.86445V16.1799C8.07369 16.5808 8.50776 16.8314 8.85502 16.631L14.3243 13.4733Z" fill="#C4C4C4"/>
</svg>
