<svg width="19" height="20" viewBox="0 0 19 20" fill="none" xmlns="http://www.w3.org/2000/svg">
<path fill-rule="evenodd" clip-rule="evenodd" d="M0.314298 1.27863C-0.4902 3.36951 0.338624 7.19702 1.79211 8.10388C5.56526 10.4581 9.95438 5.81378 7.78154 1.76627C6.67123 -0.301227 1.06319 -0.668473 0.314298 1.27863ZM11.6285 1.22579C10.8067 3.36258 11.6172 7.1875 13.0864 8.10388C13.8492 8.5794 15.532 8.70326 16.8274 8.37932C18.9828 7.84057 19.1601 7.48025 18.9168 4.13779C18.6588 0.596103 18.5519 0.477441 15.386 0.215864C13.1202 0.0287755 11.9708 0.337991 11.6285 1.22579ZM0.314298 12.5386C-0.4902 14.6294 0.338624 18.457 1.79211 19.3638C5.56526 21.718 9.95438 17.0737 7.78154 13.0262C6.67123 10.9587 1.06319 10.5915 0.314298 12.5386ZM11.6285 12.4857C10.8067 14.6225 11.6172 18.4474 13.0864 19.3638C13.8492 19.8393 15.532 19.9632 16.8274 19.6393C18.9828 19.1005 19.1601 18.7402 18.9168 15.3977C18.6588 11.856 18.5519 11.7374 15.386 11.4758C13.1202 11.2887 11.9708 11.5979 11.6285 12.4857Z" fill="black"/>
</svg>
