<svg width="29" height="29" viewBox="0 0 29 29" fill="none" xmlns="http://www.w3.org/2000/svg">
<path fill-rule="evenodd" clip-rule="evenodd" d="M15.1494 2.52086C15.2911 2.52243 15.4256 2.5841 15.5192 2.69052L17.8201 5.30519H23.9472C25.3279 5.30519 26.4472 6.42448 26.4472 7.80519V23.8526C26.4472 25.2333 25.3279 26.3526 23.9472 26.3526H6.22919C4.84847 26.3526 3.72919 25.2333 3.72919 23.8526V7.80519C3.72919 6.42448 4.84847 5.30519 6.22919 5.30519H12.3628L14.7759 2.6823C14.8719 2.57798 15.0076 2.5193 15.1494 2.52086ZM15.1356 3.7683L12.9502 6.14372C12.8555 6.24663 12.7221 6.30519 12.5823 6.30519H6.22919C5.40076 6.30519 4.72919 6.97676 4.72919 7.80519V23.8526C4.72919 24.681 5.40076 25.3526 6.22919 25.3526H7.07047V25.2838C7.07047 22.2463 9.5329 19.7838 12.5705 19.7838H17.0491C20.0867 19.7838 22.5491 22.2463 22.5491 25.2838V25.3526H23.9472C24.7756 25.3526 25.4472 24.681 25.4472 23.8526V7.80519C25.4472 6.97676 24.7756 6.30519 23.9472 6.30519H17.5941C17.4504 6.30519 17.3137 6.24337 17.2187 6.1355L15.1356 3.7683ZM21.5491 25.3526V25.2838C21.5491 22.7986 19.5344 20.7838 17.0491 20.7838H12.5705C10.0852 20.7838 8.07047 22.7986 8.07047 25.2838V25.3526H21.5491ZM15.0323 17.056C16.9404 17.056 18.4873 15.5092 18.4873 13.601C18.4873 11.6929 16.9404 10.1461 15.0323 10.1461C13.1242 10.1461 11.5773 11.6929 11.5773 13.601C11.5773 15.5092 13.1242 17.056 15.0323 17.056ZM15.0323 18.056C17.4927 18.056 19.4873 16.0614 19.4873 13.601C19.4873 11.1406 17.4927 9.14606 15.0323 9.14606C12.5719 9.14606 10.5773 11.1406 10.5773 13.601C10.5773 16.0614 12.5719 18.056 15.0323 18.056Z" fill="#C4C4C4"/>
<path d="M15.5192 2.69052L15.3315 2.85567V2.85568L15.5192 2.69052ZM15.1494 2.52086L15.1522 2.27088L15.1494 2.52086ZM17.8201 5.30519L17.6325 5.47035L17.7071 5.55519H17.8201V5.30519ZM12.3628 5.30519V5.55519H12.4726L12.5468 5.47445L12.3628 5.30519ZM14.7759 2.6823L14.5919 2.51304L14.5919 2.51304L14.7759 2.6823ZM12.9502 6.14372L13.1342 6.31298V6.31298L12.9502 6.14372ZM15.1356 3.7683L15.3233 3.60314L15.1397 3.39457L14.9516 3.59904L15.1356 3.7683ZM7.07047 25.3526V25.6026H7.32047V25.3526H7.07047ZM22.5491 25.3526H22.2991V25.6026H22.5491V25.3526ZM17.2187 6.1355L17.0311 6.30066V6.30066L17.2187 6.1355ZM21.5491 25.3526V25.6026H21.7991V25.3526H21.5491ZM8.07047 25.3526H7.82047V25.6026H8.07047V25.3526ZM15.7069 2.52536C15.5664 2.36573 15.3648 2.27323 15.1522 2.27088L15.1466 2.77085C15.2175 2.77163 15.2847 2.80246 15.3315 2.85567L15.7069 2.52536ZM18.0078 5.14003L15.7069 2.52536L15.3315 2.85568L17.6325 5.47035L18.0078 5.14003ZM23.9472 5.05519H17.8201V5.55519H23.9472V5.05519ZM26.6972 7.80519C26.6972 6.28641 25.466 5.05519 23.9472 5.05519V5.55519C25.1898 5.55519 26.1972 6.56255 26.1972 7.80519H26.6972ZM26.6972 23.8526V7.80519H26.1972V23.8526H26.6972ZM23.9472 26.6026C25.4659 26.6026 26.6972 25.3713 26.6972 23.8526H26.1972C26.1972 25.0952 25.1898 26.1026 23.9472 26.1026V26.6026ZM6.22919 26.6026H23.9472V26.1026H6.22919V26.6026ZM3.47919 23.8526C3.47919 25.3713 4.7104 26.6026 6.22919 26.6026V26.1026C4.98655 26.1026 3.97919 25.0952 3.97919 23.8526H3.47919ZM3.47919 7.80519V23.8526H3.97919V7.80519H3.47919ZM6.22919 5.05519C4.7104 5.05519 3.47919 6.28641 3.47919 7.80519H3.97919C3.97919 6.56255 4.98655 5.55519 6.22919 5.55519V5.05519ZM12.3628 5.05519H6.22919V5.55519H12.3628V5.05519ZM14.5919 2.51304L12.1789 5.13592L12.5468 5.47445L14.9599 2.85157L14.5919 2.51304ZM15.1522 2.27088C14.9395 2.26853 14.7359 2.35655 14.5919 2.51304L14.9599 2.85157C15.0079 2.7994 15.0758 2.77006 15.1466 2.77085L15.1522 2.27088ZM13.1342 6.31298L15.3196 3.93757L14.9516 3.59904L12.7662 5.97445L13.1342 6.31298ZM12.5823 6.55519C12.792 6.55519 12.9922 6.46735 13.1342 6.31298L12.7662 5.97445C12.7189 6.02591 12.6522 6.05519 12.5823 6.05519V6.55519ZM6.22919 6.55519H12.5823V6.05519H6.22919V6.55519ZM4.97919 7.80519C4.97919 7.11483 5.53883 6.55519 6.22919 6.55519V6.05519C5.26269 6.05519 4.47919 6.83869 4.47919 7.80519H4.97919ZM4.97919 23.8526V7.80519H4.47919V23.8526H4.97919ZM6.22919 25.1026C5.53883 25.1026 4.97919 24.5429 4.97919 23.8526H4.47919C4.47919 24.819 5.26269 25.6026 6.22919 25.6026V25.1026ZM7.07047 25.1026H6.22919V25.6026H7.07047V25.1026ZM7.32047 25.3526V25.2838H6.82047V25.3526H7.32047ZM7.32047 25.2838C7.32047 22.3844 9.67097 20.0338 12.5705 20.0338V19.5338C9.39483 19.5338 6.82047 22.1082 6.82047 25.2838H7.32047ZM12.5705 20.0338H17.0491V19.5338H12.5705V20.0338ZM17.0491 20.0338C19.9486 20.0338 22.2991 22.3844 22.2991 25.2838H22.7991C22.7991 22.1082 20.2248 19.5338 17.0491 19.5338V20.0338ZM22.2991 25.2838V25.3526H22.7991V25.2838H22.2991ZM23.9472 25.1026H22.5491V25.6026H23.9472V25.1026ZM25.1972 23.8526C25.1972 24.5429 24.6375 25.1026 23.9472 25.1026V25.6026C24.9137 25.6026 25.6972 24.819 25.6972 23.8526H25.1972ZM25.1972 7.80519V23.8526H25.6972V7.80519H25.1972ZM23.9472 6.55519C24.6375 6.55519 25.1972 7.11483 25.1972 7.80519H25.6972C25.6972 6.83869 24.9137 6.05519 23.9472 6.05519V6.55519ZM17.5941 6.55519H23.9472V6.05519H17.5941V6.55519ZM17.0311 6.30066C17.1735 6.46246 17.3786 6.55519 17.5941 6.55519V6.05519C17.5223 6.05519 17.4539 6.02428 17.4064 5.97035L17.0311 6.30066ZM14.9479 3.93346L17.0311 6.30066L17.4064 5.97035L15.3233 3.60314L14.9479 3.93346ZM21.7991 25.3526V25.2838H21.2991V25.3526H21.7991ZM21.7991 25.2838C21.7991 22.6605 19.6725 20.5338 17.0491 20.5338V21.0338C19.3963 21.0338 21.2991 22.9366 21.2991 25.2838H21.7991ZM17.0491 20.5338H12.5705V21.0338H17.0491V20.5338ZM12.5705 20.5338C9.94712 20.5338 7.82047 22.6605 7.82047 25.2838H8.32047C8.32047 22.9366 10.2233 21.0338 12.5705 21.0338V20.5338ZM7.82047 25.2838V25.3526H8.32047V25.2838H7.82047ZM21.5491 25.1026H8.07047V25.6026H21.5491V25.1026ZM18.2373 13.601C18.2373 15.3711 16.8024 16.806 15.0323 16.806V17.306C17.0785 17.306 18.7373 15.6472 18.7373 13.601H18.2373ZM15.0323 10.3961C16.8024 10.3961 18.2373 11.831 18.2373 13.601H18.7373C18.7373 11.5548 17.0785 9.89606 15.0323 9.89606V10.3961ZM11.8273 13.601C11.8273 11.831 13.2623 10.3961 15.0323 10.3961V9.89606C12.9861 9.89606 11.3273 11.5548 11.3273 13.601H11.8273ZM15.0323 16.806C13.2623 16.806 11.8273 15.3711 11.8273 13.601H11.3273C11.3273 15.6472 12.9861 17.306 15.0323 17.306V16.806ZM19.2373 13.601C19.2373 15.9234 17.3547 17.806 15.0323 17.806V18.306C17.6308 18.306 19.7373 16.1995 19.7373 13.601H19.2373ZM15.0323 9.39606C17.3547 9.39606 19.2373 11.2787 19.2373 13.601H19.7373C19.7373 11.0026 17.6308 8.89606 15.0323 8.89606V9.39606ZM10.8273 13.601C10.8273 11.2787 12.71 9.39606 15.0323 9.39606V8.89606C12.4338 8.89606 10.3273 11.0026 10.3273 13.601H10.8273ZM15.0323 17.806C12.71 17.806 10.8273 15.9234 10.8273 13.601H10.3273C10.3273 16.1995 12.4338 18.306 15.0323 18.306V17.806Z" fill="#C4C4C4"/>
</svg>
