<svg width="25" height="28" viewBox="0 0 25 28" fill="none" xmlns="http://www.w3.org/2000/svg">
<path d="M22.0366 6.25669C20.8024 5.09507 19.3439 4.32065 16.2024 4.32065H14.3512L16.1463 2.38461C16.4829 2.05271 16.4268 1.49956 16.0902 1.22298C15.7537 0.89109 15.1927 0.946405 14.9122 1.2783L12.5 3.82281L10.0878 1.2783C9.75122 0.946405 9.24634 0.946405 8.90976 1.22298C8.57317 1.55488 8.51707 2.05271 8.85366 2.38461L10.6488 4.32065H8.79756C5.6561 4.32065 4.19756 5.09507 2.96341 6.25669C1.78537 7.47363 1 8.91184 1 12.0095V19.2558C1 22.4088 1.78537 23.847 2.96341 25.064C4.19756 26.2256 5.6561 27 8.79756 27H16.1463C19.3439 27 20.8024 26.2256 22.0366 25.064C23.2146 23.847 24 22.4088 24 19.3111V12.0648C24 8.91184 23.2146 7.47363 22.0366 6.25669ZM22.3171 19.3111C22.3171 22.1876 21.5878 23.1832 20.8585 23.9023C20.0732 24.6214 19.0634 25.3405 16.1463 25.3405H8.79756C5.88049 25.3405 4.87073 24.6214 4.14146 23.9023C3.4122 23.1279 2.68293 22.1322 2.68293 19.2558V12.0648C2.68293 9.18841 3.4122 8.19273 4.14146 7.47363C4.92683 6.75453 5.93659 6.03543 8.85366 6.03543H16.2024C19.1195 6.03543 20.1293 6.75453 20.8585 7.47363C21.5878 8.24805 22.3171 9.24373 22.3171 12.1201V19.3111ZM18.4463 14.554L13.3415 16.1028V14.0562C13.3415 13.7796 13.2293 13.5583 13.0049 13.3924C12.7805 13.2264 12.5 13.1711 12.2756 13.2818L6.04878 15.1625C5.6 15.2731 5.37561 15.771 5.4878 16.2135C5.6 16.656 6.10488 16.8773 6.55366 16.7666L11.6585 15.2178V17.2645C11.6585 17.5411 11.7707 17.7623 11.9951 17.9283C12.1634 18.0389 12.3317 18.0942 12.5 18.0942C12.5561 18.0942 12.6683 18.0942 12.7244 18.0389L18.9512 16.1582C19.4 16.0475 19.6244 15.5497 19.5122 15.1072C19.4 14.6646 18.8951 14.4434 18.4463 14.554Z" fill="#C4C4C4" stroke="#C4C4C4" stroke-width="0.2"/>
</svg>
