<svg width="23" height="24" viewBox="0 0 23 24" fill="none" xmlns="http://www.w3.org/2000/svg">
<path fill-rule="evenodd" clip-rule="evenodd" d="M16.1554 0.0968787C15.8459 0.148685 15.2013 0.389448 14.723 0.632134C13.8885 1.05545 13.7394 1.1926 11.0333 4.02376C8.03396 7.16191 7.79566 7.4815 7.39991 8.89703C7.16561 9.7349 7.16642 11.2489 7.40154 12.1037C7.75289 13.3813 8.76929 14.8527 9.71694 15.4559C10.5355 15.9768 11.4489 15.5299 11.4489 14.6084C11.4489 14.1929 11.3958 14.108 10.6929 13.3986C9.84893 12.5468 9.58086 12.076 9.40324 11.1331C9.26041 10.3755 9.37439 9.53408 9.71643 8.82141C9.95943 8.31488 14.7249 3.22584 15.3503 2.80488C15.9377 2.40955 16.8144 2.18695 17.5435 2.24805C19.7683 2.43455 21.3295 4.75983 20.714 6.97028C20.4731 7.83539 20.3821 7.96399 18.8472 9.60672C17.4951 11.0539 17.4855 11.0676 17.4855 11.5609C17.4855 12.1163 17.7672 12.5179 18.2441 12.6429C18.7785 12.7829 19.0537 12.5902 20.5125 11.0547C21.7782 9.72261 22.0059 9.42737 22.3835 8.62999C23.5005 6.27117 23.0802 3.664 21.28 1.78457C19.8671 0.30955 18.1894 -0.24301 16.1554 0.0968787ZM11.8503 8.62177C11.6151 8.86734 11.5512 9.02938 11.5512 9.38102C11.5512 9.79653 11.6044 9.88145 12.3073 10.5908C13.1513 11.4426 13.4193 11.9134 13.5969 12.8563C13.7398 13.6139 13.6258 14.4553 13.2838 15.168C13.0408 15.6745 8.27532 20.7636 7.64986 21.1845C7.06247 21.5798 6.18573 21.8025 5.45663 21.7414C3.23189 21.5548 1.67066 19.2296 2.28619 17.0191C2.52704 16.154 2.6181 16.0254 4.15293 14.3827C5.48088 12.9614 5.51465 12.9136 5.51465 12.457C5.51465 11.9064 5.33344 11.5944 4.90648 11.4097C4.2707 11.1347 4.01255 11.2968 2.47414 12.9363C1.23388 14.2582 0.986477 14.5813 0.615072 15.3642C-0.500574 17.7163 -0.0788305 20.3267 1.72018 22.2048C3.51817 24.0819 6.00893 24.521 8.27716 23.3609C9.10898 22.9356 9.26962 22.7876 11.9669 19.9656C14.9662 16.8275 15.2045 16.5079 15.6003 15.0924C15.8346 14.2545 15.8338 12.7405 15.5986 11.8857C15.2473 10.6081 14.2309 9.13673 13.2832 8.53354C12.7648 8.20358 12.2187 8.23723 11.8503 8.62177Z" fill="#C4C4C4"/>
</svg>
