<svg width="25" height="25" viewBox="0 0 25 25" fill="none" xmlns="http://www.w3.org/2000/svg">
<path d="M8.75 5.46875C5.85328 5.46875 3.38542 7.63469 3.38542 10.4477C3.38542 12.3883 4.29412 14.0221 5.49843 15.3754C6.69861 16.7242 8.24703 17.8563 9.64685 18.8038L12.0621 20.4386C12.3266 20.6177 12.6734 20.6177 12.9379 20.4386L15.3532 18.8038C16.753 17.8563 18.3014 16.7242 19.5016 15.3754C20.7059 14.0221 21.6146 12.3883 21.6146 10.4477C21.6146 7.63469 19.1467 5.46875 16.25 5.46875C14.7568 5.46875 13.4429 6.16889 12.5 7.07483C11.5571 6.16889 10.2432 5.46875 8.75 5.46875Z" fill="black"/>
</svg>
