<svg width="32" height="33" viewBox="0 0 32 33" fill="none" xmlns="http://www.w3.org/2000/svg">
<path d="M23.7238 12.085C23.8109 11.9332 23.8088 11.7461 23.7184 11.5962C23.628 11.4464 23.4634 11.3573 23.2885 11.3636L20.7736 11.4537C15.8189 11.6312 10.8953 12.3146 6.07958 13.4932L5.42723 13.6528C5.27832 13.6893 5.15563 13.7944 5.09678 13.9359C5.03794 14.0775 5.04996 14.2386 5.12917 14.3699L7.99237 19.1151C8.12479 19.3346 8.40582 19.412 8.63194 19.2913L9.49161 18.8324C11.5876 17.7136 13.7729 16.7708 16.025 16.0139L16.248 15.9389C16.2977 15.9222 16.3274 15.9287 16.3465 15.9365C16.3706 15.9464 16.3977 15.9678 16.4179 16.0013C16.4381 16.0348 16.4444 16.0686 16.4419 16.0946C16.4399 16.1152 16.4317 16.1445 16.3939 16.1806L16.2236 16.343C14.504 17.9825 12.6512 19.4763 10.6842 20.809L9.8775 21.3556C9.6653 21.4993 9.60277 21.7841 9.73519 22.0035L12.5984 26.7487C12.6776 26.88 12.8145 26.9658 12.9672 26.9797C13.1199 26.9936 13.2701 26.9341 13.3717 26.8193L13.8171 26.3166C17.1049 22.6057 20.0048 18.5685 22.4717 14.2679L23.7238 12.085Z" fill="black"/>
</svg>
