<svg width="19" height="19" viewBox="0 0 19 19" fill="none" xmlns="http://www.w3.org/2000/svg">
<path d="M6.04122 0C6.43278 0 6.74043 0.311175 6.74043 0.686416C6.74043 0.960983 6.9735 1.18064 7.25319 1.18064H8.17615C9.58391 1.18979 10.7306 2.31551 10.7399 3.68834V3.86224C11.6256 3.86224 12.5113 3.88054 13.4063 3.88969C16.6413 3.88969 19 6.19605 19 9.38102V13.4721C19 16.657 16.6413 18.9634 13.4063 18.9634C12.1104 18.9908 10.8145 19 9.50932 19C8.20412 19 6.8896 18.9908 5.59372 18.9634C2.35868 18.9634 0 16.657 0 13.4721V9.38102C0 6.19605 2.35868 3.88969 5.60304 3.88969C6.82434 3.87139 8.0736 3.85308 9.34151 3.85308V3.69749C9.34151 3.06599 8.81011 2.55347 8.17615 2.55347H7.25319C6.19971 2.55347 5.342 1.71146 5.342 0.686416C5.342 0.311175 5.65898 0 6.04122 0ZM6.73111 9.08815C6.33955 9.08815 6.03189 9.39933 6.03189 9.77457V10.7355H5.04367C4.66143 10.7355 4.34446 11.0467 4.34446 11.422C4.34446 11.8064 4.66143 12.1084 5.04367 12.1084H6.03189V13.0785C6.03189 13.4538 6.33955 13.7649 6.73111 13.7649C7.11335 13.7649 7.43032 13.4538 7.43032 13.0785V12.1084H8.40922C8.79146 12.1084 9.10844 11.8064 9.10844 11.422C9.10844 11.0467 8.79146 10.7355 8.40922 10.7355H7.43032V9.77457C7.43032 9.39933 7.11335 9.08815 6.73111 9.08815ZM14.0589 12.3372H13.9657C13.5732 12.3372 13.2664 12.6484 13.2664 13.0236C13.2664 13.408 13.5732 13.71 13.9657 13.71H14.0589C14.4411 13.71 14.7581 13.408 14.7581 13.0236C14.7581 12.6484 14.4411 12.3372 14.0589 12.3372ZM12.4647 9.18882H12.3714C11.9799 9.18882 11.6722 9.5 11.6722 9.87524C11.6722 10.2596 11.9799 10.5617 12.3714 10.5617H12.4647C12.8469 10.5617 13.1639 10.2596 13.1639 9.87524C13.1639 9.5 12.8469 9.18882 12.4647 9.18882Z" fill="black"/>
</svg>
