<svg width="25" height="20" viewBox="0 0 25 20" fill="none" xmlns="http://www.w3.org/2000/svg">
<path d="M23.4192 9.96933C23.8823 9.96933 24.2583 10.338 24.2583 10.7932C24.2583 11.2474 23.8823 11.615 23.4192 11.615H22.2482V15.54C22.2482 17.9166 20.2778 19.8477 17.8563 19.8477H16.0998C15.6356 19.8477 15.2596 19.479 15.2596 19.0238C15.2596 18.5697 15.6356 18.201 16.0998 18.201H17.8563C19.3526 18.201 20.57 17.0083 20.57 15.54V11.615H17.6777V12.7082C17.6887 14.076 16.5695 15.194 15.1747 15.2069H9.08364C7.68989 15.194 6.5707 14.076 6.58172 12.7082V11.615H3.68947V15.5443C3.68947 17.0072 4.90349 18.1977 6.39538 18.1999L8.19049 18.201C8.65361 18.201 9.02961 18.5697 9.02961 19.0238C9.02851 19.479 8.65361 19.8477 8.18939 19.8477L6.39317 19.8466C3.97726 19.8445 2.01013 17.9144 2.01013 15.5443V11.615H0.84022C0.377107 11.615 0 11.2474 0 10.7932C0 10.338 0.377107 9.96933 0.84022 9.96933H23.4192ZM15.1752 4.12685C15.8423 4.12685 16.483 4.38959 16.9494 4.85778C17.4191 5.33029 17.6794 5.96499 17.6783 6.62564V7.99884C17.6727 8.15995 17.5415 8.29078 17.3772 8.2951H6.87999C6.7168 8.2897 6.58558 8.15886 6.58218 7.99884V6.62564C6.57015 5.25784 7.69044 4.1409 9.08419 4.12685H15.1752ZM17.8559 0.000324378C20.2784 0.000324378 22.2477 1.93146 22.2477 4.30698V6.35381C22.2477 6.80794 21.8728 7.17773 21.4086 7.17773C20.9455 7.17773 20.5695 6.80794 20.5695 6.35381V4.30698C20.5695 2.83971 19.3522 1.646 17.8559 1.646H16.0994C15.6363 1.646 15.2602 1.27837 15.2602 0.824245C15.2602 0.369034 15.6363 0.000324378 16.0994 0.000324378H17.8559ZM8.19016 0C8.65327 0 9.02928 0.36871 9.02928 0.82392C9.02928 1.27805 8.65438 1.64676 8.19016 1.64676L6.39394 1.64784C4.90316 1.65 3.69024 2.84047 3.69024 4.30342V6.35348C3.69024 6.80761 3.31314 7.1774 2.85002 7.1774C2.38691 7.1774 2.0109 6.80761 2.0109 6.35348V4.30342C2.0109 1.93329 3.97693 0.00324378 6.39284 0.00108126L8.19016 0Z" fill="black"/>
</svg>
