<svg width="17" height="18" viewBox="0 0 17 18" fill="none" xmlns="http://www.w3.org/2000/svg">
<path fill-rule="evenodd" clip-rule="evenodd" d="M8.17004 0C12.6749 0 16.3392 3.66431 16.3392 8.1692C16.3392 10.2946 15.5236 12.2331 14.1888 13.6879L16.8152 16.3088C17.061 16.5546 17.0619 16.9522 16.8161 17.198C16.6936 17.3222 16.5317 17.3834 16.3706 17.3834C16.2104 17.3834 16.0493 17.3222 15.926 17.1997L13.2679 14.549C11.8696 15.6688 10.0967 16.3392 8.17004 16.3392C3.66515 16.3392 0 12.6741 0 8.1692C0 3.66431 3.66515 0 8.17004 0ZM8.17004 1.25835C4.35892 1.25835 1.25835 4.35808 1.25835 8.1692C1.25835 11.9803 4.35892 15.0809 8.17004 15.0809C11.9803 15.0809 15.0809 11.9803 15.0809 8.1692C15.0809 4.35808 11.9803 1.25835 8.17004 1.25835Z" fill="#040303"/>
</svg>
