<svg width="17" height="19" viewBox="0 0 17 19" fill="none" xmlns="http://www.w3.org/2000/svg">
<path d="M8.50467 0C11.0357 0 13.1166 1.98891 13.2222 4.50908H13.1975C13.2005 4.58234 13.1864 4.65529 13.1564 4.72222H13.3039C14.4533 4.72222 15.6569 5.51887 16.1395 7.44204L16.1919 7.66896L16.9181 13.5195C17.4407 17.251 15.3991 18.8202 12.6142 18.8867L12.4274 18.8889H4.59806C1.76779 18.8889 -0.413153 17.8575 0.0663764 13.7734L0.0990766 13.5195L0.833604 7.66896C1.1958 5.5979 2.41174 4.78101 3.58334 4.7253L3.71328 4.72222H3.78712C3.77466 4.65172 3.77466 4.57959 3.78712 4.50908C3.89274 1.98891 5.97361 0 8.50467 0ZM5.75827 7.86655C5.29729 7.86655 4.92358 8.25119 4.92358 8.72566C4.92358 9.20013 5.29729 9.58477 5.75827 9.58477C6.21926 9.58477 6.59296 9.20013 6.59296 8.72566L6.58646 8.61789C6.53496 8.19429 6.1838 7.86655 5.75827 7.86655ZM11.2255 7.86655C10.7645 7.86655 10.3908 8.25119 10.3908 8.72566C10.3908 9.20013 10.7645 9.58477 11.2255 9.58477C11.6865 9.58477 12.0602 9.20013 12.0602 8.72566C12.0602 8.25119 11.6865 7.86655 11.2255 7.86655ZM8.46765 1.23003C6.65044 1.23003 5.17729 2.69811 5.17729 4.50908C5.18974 4.57959 5.18974 4.65172 5.17729 4.72222H11.7991C11.7729 4.65417 11.7589 4.582 11.758 4.50908C11.758 2.69811 10.2849 1.23003 8.46765 1.23003Z" fill="black"/>
</svg>
