<svg width="24" height="25" viewBox="0 0 24 25" fill="none" xmlns="http://www.w3.org/2000/svg">
<path d="M15.5402 24.0091C15.8217 24.2906 16.2048 24.449 16.6044 24.449H19.0015C20.121 24.4518 21.1957 24.0124 21.9884 23.2275C22.781 22.4426 23.2265 21.3769 23.2265 20.2655V9.61683C23.2265 8.71906 22.8256 7.86748 22.132 7.2915L15.5402 24.0091ZM15.5402 24.0091C15.2587 23.7276 15.102 23.3461 15.1049 22.9494L15.5402 24.0091ZM21.501 8.06739C21.9622 8.45423 22.2265 9.02135 22.2265 9.61683V20.2655C22.2265 21.1089 21.8885 21.9191 21.2848 22.5169C20.6808 23.115 19.8603 23.4512 19.0041 23.449H19.0015H16.6044C16.4689 23.449 16.3405 23.3952 16.2473 23.302C16.1543 23.209 16.1039 23.0846 16.1049 22.9568H16.1049V22.9494V19.2115C16.1049 18.4857 15.8144 17.7911 15.2997 17.2802C14.7852 16.7694 14.089 16.4838 13.3645 16.4838H9.85102C8.34446 16.4838 7.11067 17.6982 7.11067 19.2115V22.227L7.0831 22.2361L7.07786 22.953C7.07591 23.2207 6.85471 23.449 6.56735 23.449H4.22499C2.43699 23.449 1 22.012 1 20.2547V9.62977C1.0174 9.02519 1.30651 8.45757 1.79196 8.08402L1.79955 8.07818L1.80704 8.07219L9.77541 1.69384L9.78925 1.68276L9.80268 1.67121C10.8141 0.801067 12.3103 0.773942 13.3532 1.60741L13.3562 1.60981L21.501 8.06739Z" stroke="#878D98" stroke-width="2"/>
</svg>
