<svg width="21" height="29" viewBox="0 0 21 29" fill="none" xmlns="http://www.w3.org/2000/svg">
<path fill-rule="evenodd" clip-rule="evenodd" d="M10.5 27.7349C5.37588 27.7349 1 26.9375 1 23.7441C1 20.5507 5.34812 17.6028 10.5 17.6028C15.6241 17.6028 20 20.5221 20 23.7156C20 26.9077 15.6519 27.7349 10.5 27.7349Z" fill="#040303" stroke="#040303" stroke-width="1.5" stroke-linecap="round" stroke-linejoin="round"/>
<path fill-rule="evenodd" clip-rule="evenodd" d="M10.49 13.1775C13.8526 13.1775 16.5781 10.4521 16.5781 7.08939C16.5781 3.72672 13.8526 1 10.49 1C7.12731 1 4.40055 3.72672 4.40055 7.08939C4.38923 10.4407 7.09576 13.1662 10.4471 13.1775C10.4622 13.1775 10.4761 13.1775 10.49 13.1775Z" fill="#040303" stroke="#040303" stroke-width="1.5" stroke-linecap="round" stroke-linejoin="round"/>
</svg>
