<svg width="29" height="12" viewBox="0 0 29 12" fill="none" xmlns="http://www.w3.org/2000/svg">
<path d="M0.303515 3.88086C0.303515 2.79688 0.669726 1.9082 1.40215 1.21484C2.13945 0.516602 3.08184 0.16748 4.2293 0.16748C5.00078 0.16748 5.68437 0.345703 6.28008 0.702148C6.87578 1.05859 7.35186 1.57617 7.7083 2.25488C8.20635 3.13867 8.45537 4.25195 8.45537 5.59473C8.45537 7.37207 8.07695 8.76123 7.32012 9.76221C6.56328 10.7583 5.51348 11.2563 4.1707 11.2563C3.20391 11.2563 2.38115 10.9951 1.70244 10.4727C1.02373 9.94531 0.60625 9.24707 0.45 8.37793H2.33232C2.45439 8.77832 2.679 9.0957 3.00615 9.33008C3.33818 9.55957 3.73125 9.67432 4.18535 9.67432C4.95684 9.67432 5.55986 9.33496 5.99443 8.65625C6.429 7.97266 6.64629 7.02539 6.64629 5.81445H6.58037H6.54375H6.52178C6.27275 6.31738 5.90898 6.70801 5.43047 6.98633C4.95195 7.25977 4.40264 7.39648 3.78252 7.39648C2.77666 7.39648 1.94414 7.06445 1.28496 6.40039C0.630664 5.73633 0.303515 4.89648 0.303515 3.88086ZM2.15654 3.82227C2.15654 4.42773 2.35186 4.92578 2.74248 5.31641C3.13311 5.70215 3.63115 5.89502 4.23662 5.89502C4.84209 5.89502 5.34258 5.70215 5.73809 5.31641C6.13359 4.93066 6.33135 4.44238 6.33135 3.85156C6.33135 3.25586 6.13115 2.75537 5.73076 2.3501C5.33037 1.94482 4.83477 1.74219 4.24395 1.74219C3.65312 1.74219 3.15752 1.94238 2.75713 2.34277C2.35674 2.73828 2.15654 3.23145 2.15654 3.82227ZM10.3746 9.99658C10.3746 9.65967 10.4845 9.38379 10.7042 9.16895C10.9239 8.94922 11.2047 8.83936 11.5465 8.83936C11.8932 8.83936 12.1739 8.94922 12.3888 9.16895C12.6085 9.38379 12.7184 9.65967 12.7184 9.99658C12.7184 10.3286 12.6085 10.6045 12.3888 10.8242C12.1739 11.0439 11.8932 11.1538 11.5465 11.1538C11.2047 11.1538 10.9239 11.0439 10.7042 10.8242C10.4845 10.6045 10.3746 10.3286 10.3746 9.99658ZM10.3746 4.51074C10.3746 4.17383 10.4845 3.89795 10.7042 3.68311C10.9239 3.46338 11.2047 3.35352 11.5465 3.35352C11.8932 3.35352 12.1739 3.46338 12.3888 3.68311C12.6085 3.89795 12.7184 4.17383 12.7184 4.51074C12.7184 4.84277 12.6085 5.11865 12.3888 5.33838C12.1739 5.55322 11.8932 5.66064 11.5465 5.66064C11.2047 5.66064 10.9239 5.55322 10.7042 5.33838C10.4845 5.11865 10.3746 4.84277 10.3746 4.51074ZM14.4105 9.02979V7.34521C15.2699 5.76318 16.7055 3.4585 18.7172 0.431152H21.3832V7.43311H22.8114V9.02979H21.3832V11H19.5741V9.02979H14.4105ZM16.161 7.47705H19.6034V1.96924H19.5009C18.3583 3.65869 17.245 5.45801 16.161 7.36719V7.47705ZM24.0861 4.18115V2.36475L26.8474 0.431152H28.7297V11H26.84V2.33545H26.7155L24.0861 4.18115Z" fill="black"/>
</svg>
